<svg width="21" height="23" viewBox="0 0 21 23" fill="none" xmlns="http://www.w3.org/2000/svg">
<g clip-path="url(#clip0_196_2665)">
<path d="M6 3.5H15" stroke="#5E954E" stroke-width="1.5"/>
<path d="M1 6.5H20" stroke="#5E954E"/>
<path d="M17 3.5H18C19.1046 3.5 20 4.39543 20 5.5V19C20 20.1046 19.1046 21 18 21H3C1.89543 21 1 20.1046 1 19V5.5C1 4.39543 1.89543 3.5 3 3.5H3.5" stroke="#5E954E" stroke-width="1.5"/>
<path d="M17.5 2C17.5 1.44772 17.0523 1 16.5 1C15.9477 1 15.5 1.44772 15.5 2V4C15.5 4.55228 15.9477 5 16.5 5C17.0523 5 17.5 4.55228 17.5 4V2Z" stroke="#5E954E"/>
<path d="M5.5 2C5.5 1.44772 5.05228 1 4.5 1C3.94772 1 3.5 1.44772 3.5 2V4C3.5 4.55228 3.94772 5 4.5 5C5.05228 5 5.5 4.55228 5.5 4V2Z" stroke="#5E954E"/>
<path d="M14.0753 17.0306C14.8706 16.3142 15.1182 15.2556 14.9916 14.2277C14.8647 13.197 14.3608 12.1227 13.5451 11.2173C12.7295 10.3118 11.7136 9.69878 10.7016 9.46523C9.69246 9.23233 8.61388 9.36836 7.81854 10.0848C7.02319 10.8012 6.77563 11.8598 6.90221 12.8877C7.02914 13.9185 7.53307 14.9927 8.3487 15.8982C9.16432 16.8036 10.1803 17.4167 11.1922 17.6502C12.2014 17.8831 13.2799 17.7471 14.0753 17.0306Z" stroke="#5E954E" stroke-width="1.5"/>
<path d="M7.5 11.0001C8.33333 10.8334 10 11.5001 10.5 13.5001C11.2063 16.3252 14.5 16.5001 14.5 16.5001" stroke="#5E954E" stroke-width="1.5"/>
</g>
<defs>
<clipPath id="clip0_196_2665">
<rect width="21" height="22" fill="white" transform="translate(0 0.5)"/>
</clipPath>
</defs>
</svg>
