<svg width="185" height="35" viewBox="0 0 185 35" fill="none" xmlns="http://www.w3.org/2000/svg">
<path d="M0.264828 26L10.6688 1.928H15.0548L25.5268 26H19.5428L17.4688 20.9H8.11883L6.11283 26H0.264828ZM15.6668 16.412L12.7088 8.932L9.78483 16.412H15.6668ZM44.642 9.476V24.606C44.642 30.828 41.48 34.16 35.088 34.16C32.164 34.16 29.172 33.65 26.792 31.746L29.614 27.53C31.178 28.856 32.912 29.672 34.986 29.672C38.08 29.672 39.542 27.972 39.542 25.626V24.028H39.474C38.318 25.626 36.346 26.204 34.816 26.204C29.92 26.204 26.69 22.668 26.69 17.67C26.69 13.284 29.546 9.068 34.238 9.068C37.128 9.068 39.1 10.462 39.882 11.652H39.95V9.476H44.642ZM31.79 17.636C31.79 19.778 33.558 21.716 35.87 21.716C38.182 21.716 39.95 19.778 39.95 17.636C39.95 15.494 38.182 13.556 35.87 13.556C33.558 13.556 31.79 15.494 31.79 17.636ZM48.718 26V9.476H53.818V12.128H53.886C54.974 10.122 56.402 9.068 58.646 9.068C59.224 9.068 59.87 9.102 60.346 9.238V13.896C59.632 13.692 58.918 13.556 58.17 13.556C54.294 13.556 53.818 15.8 53.818 19.098V26H48.718ZM62.6317 26V9.476H67.7317V26H62.6317ZM62.2237 4.274C62.2237 2.642 63.5497 1.316 65.1817 1.316C66.8137 1.316 68.1397 2.642 68.1397 4.274C68.1397 5.906 66.8137 7.232 65.1817 7.232C63.5497 7.232 62.2237 5.906 62.2237 4.274ZM91.8638 4.852L87.7838 8.184C86.7298 6.926 85.1998 6.212 83.2278 6.212C79.2158 6.212 76.2578 9.476 76.2578 13.964C76.2578 18.452 79.2158 21.716 83.0578 21.716C85.1998 21.716 86.9338 20.764 88.0218 19.132L92.4418 22.43C90.4358 25.286 87.0358 26.612 83.7378 26.612C76.2238 26.612 70.7498 21.682 70.7498 13.964C70.7498 6.246 76.2238 1.316 83.7378 1.316C86.4238 1.316 89.8238 2.234 91.8638 4.852ZM106.741 20.526L110.311 23.144C108.679 25.218 105.993 26.408 103.341 26.408C98.2411 26.408 94.1611 23.008 94.1611 17.738C94.1611 12.468 98.2411 9.068 103.341 9.068C108.101 9.068 111.093 12.468 111.093 17.738V19.336H99.2611C99.6691 21.274 101.131 22.532 103.103 22.532C104.769 22.532 105.891 21.682 106.741 20.526ZM99.2611 15.868H105.993C106.027 14.168 104.701 12.74 102.865 12.74C100.621 12.74 99.3971 14.27 99.2611 15.868ZM114.195 26V9.476H119.091V11.72H119.159C119.839 10.428 121.505 9.068 123.987 9.068C129.155 9.068 130.107 12.468 130.107 16.888V26H125.007V17.908C125.007 16.004 124.973 13.556 122.355 13.556C119.703 13.556 119.295 15.63 119.295 17.772V26H114.195ZM144.972 9.476V13.556H140.484V19.064C140.484 20.832 140.688 22.124 142.898 22.124C143.442 22.124 144.53 22.056 144.972 21.648V25.898C143.85 26.306 142.592 26.408 141.402 26.408C138.002 26.408 135.384 25.014 135.384 21.41V13.556H132.12V9.476H135.384V4.58H140.484V9.476H144.972ZM147.564 26V9.476H152.664V12.128H152.732C153.82 10.122 155.248 9.068 157.492 9.068C158.07 9.068 158.716 9.102 159.192 9.238V13.896C158.478 13.692 157.764 13.556 157.016 13.556C153.14 13.556 152.664 15.8 152.664 19.098V26H147.564ZM171.779 26V23.926H171.711C170.589 25.694 168.549 26.408 166.475 26.408C163.381 26.408 160.593 24.64 160.593 21.308C160.593 15.596 167.529 15.494 171.779 15.494C171.779 13.692 170.283 12.536 168.515 12.536C166.849 12.536 165.455 13.284 164.367 14.508L161.647 11.72C163.517 9.952 166.237 9.068 168.923 9.068C174.873 9.068 176.471 12.094 176.471 17.602V26H171.779ZM171.779 18.758H170.521C168.957 18.758 165.489 18.894 165.489 21.138C165.489 22.362 166.781 22.94 167.903 22.94C169.909 22.94 171.779 21.886 171.779 19.846V18.758ZM179.739 26V0.295999H184.839V26H179.739Z" fill="#0F5C05"/>
</svg>
