<svg width="194" height="163" viewBox="0 0 194 163" fill="none" xmlns="http://www.w3.org/2000/svg">
<path d="M2 162.618V126.618C21.2 135.018 37 130.118 42.5 126.618C88.5 109.818 131.333 119.618 147 126.618C163.4 135.418 183.5 130.284 191.5 126.618V162.618H2Z" fill="#0F5C05"/>
<path d="M62.5589 48.6765L63.6195 49.7372L63.6195 49.7372L62.5589 48.6765ZM88.75 36.7678C89.5668 36.6297 90.1171 35.8556 89.979 35.0388C89.8409 34.2219 89.0668 33.6717 88.25 33.8098L88.75 36.7678ZM63.6195 115.498C54.8991 106.778 50 94.9502 50 82.6176H47C47 95.7459 52.2152 108.336 61.4982 117.619L63.6195 115.498ZM50 82.6176C50 70.2851 54.8991 58.4576 63.6195 49.7372L61.4982 47.6158C52.2152 56.8989 47 69.4894 47 82.6176H50ZM63.6195 49.7372C70.4913 42.8654 79.2926 38.3664 88.75 36.7678L88.25 33.8098C78.1825 35.5115 68.8135 40.3006 61.4982 47.6158L63.6195 49.7372Z" fill="black"/>
<path d="M129.441 116.559C138.443 107.557 143.5 95.348 143.5 82.6176C143.5 69.8872 138.443 57.6783 129.441 48.6765C122.348 41.583 113.262 36.9389 103.5 35.2888" stroke="black" stroke-width="3" stroke-linecap="round" stroke-linejoin="round"/>
<path d="M115.247 152.958C109.024 151.254 100.311 144.269 115.247 129.958C121.685 134.43 131.214 149.38 115.247 152.958Z" fill="#EBF6EA"/>
<path d="M115.366 147.958C112.071 147.069 107.459 143.425 115.366 135.958C118.775 138.291 123.819 146.091 115.366 147.958Z" fill="black" stroke="black" stroke-width="3"/>
<path d="M69 144.618H76.6038" stroke="#EBF6EA" stroke-width="3" stroke-linecap="round"/>
<path d="M81.6981 144.618H89.3019" stroke="#EBF6EA" stroke-width="3" stroke-linecap="round"/>
<path d="M94.3962 144.618H102" stroke="#EBF6EA" stroke-width="3" stroke-linecap="round"/>
<path d="M77 11.1765C84.023 4.25169 101.655 -5.443 116 11.1765" stroke="black" stroke-width="3.44118" stroke-linecap="round"/>
<path d="M82.7353 16.9118C87.6927 11.7182 100.139 4.44717 110.265 16.9118" stroke="black" stroke-width="3.44118" stroke-linecap="round"/>
<path d="M86.1765 21.5C89.8945 18.0376 99.2292 13.1903 106.824 21.5" stroke="black" stroke-width="3.44118" stroke-linecap="round"/>
<path d="M90.7647 27.2353C92.8303 25.5041 98.0162 23.0804 102.235 27.2353" stroke="black" stroke-width="2.29412" stroke-linecap="round"/>
<circle cx="175.5" cy="113.458" r="6" stroke="black" stroke-width="3"/>
<circle cx="4.5" cy="4.5" r="6" transform="matrix(-1 0 0 1 21 109.458)" stroke="black" stroke-width="3"/>
<circle cx="4.5" cy="4.5" r="6" transform="matrix(-1 0 0 1 12 76.958)" stroke="black" stroke-width="3"/>
<circle cx="185" cy="81.458" r="6" stroke="black" stroke-width="3"/>
<path d="M14 44.5006C11.3995 45.1769 9.5 47.5704 9.5 50.3839C9.5 53.7153 12.1633 56.458 15.5 56.458C18.8367 56.458 21.5 53.7153 21.5 50.3839C21.5 47.5704 19.6005 45.1769 17 44.5006V35.958C17 35.1296 16.3284 34.458 15.5 34.458C14.6716 34.458 14 35.1296 14 35.958V44.5006Z" stroke="black" stroke-width="3" stroke-linecap="round"/>
<path d="M178 43.5006V34.958C178 34.1296 177.328 33.458 176.5 33.458C175.672 33.458 175 34.1296 175 34.958V43.5006C172.4 44.1769 170.5 46.5704 170.5 49.3839C170.5 52.1974 172.4 54.5909 175 55.2672V64.958C175 65.7864 175.672 66.458 176.5 66.458C177.328 66.458 178 65.7864 178 64.958V55.2672C180.123 54.7152 181.778 53.0188 182.315 50.8839H192C192.828 50.8839 193.5 50.2123 193.5 49.3839C193.5 48.5555 192.828 47.8839 192 47.8839H182.315C181.778 45.749 180.123 44.0526 178 43.5006Z" stroke="black" stroke-width="3" stroke-linecap="round"/>
<path d="M96.5 77.6176C88.3334 72.6176 76.9 58.5176 96.5 42.1176C105 48.951 116.9 65.6176 96.5 77.6176ZM96.5 77.6176C86.9001 70.4176 78 70.6176 70.5 71.6176C70.5 88.0176 87.5 89.1176 96.5 91.6176M96.5 77.6176C101.667 74.2843 110.5 68.6176 122 71.6176C119.5 79.1176 120 87.1176 96.5 91.6176M96.5 77.6176V61.958M96.5 77.6176V91.6176M96.5 111.118C77.3 111.118 70.5 97.1176 70.5 90.1176C83.3 88.9176 92.6667 94.6176 96.5 97.6176C107.3 89.2176 118.5 90.1176 122 91.6176C121.6 104.818 106.833 110.118 99.5 111.118H96.5ZM96.5 111.118V117.118V98.6176V91.6176M96.5 111.118L106.5 99.958M96.5 111.118L84.5 99.958M96.5 91.6176L106.5 79.958M96.5 91.6176L84.5 79.958" stroke="#0F5C05" stroke-width="3" stroke-linecap="round" stroke-linejoin="round"/>
<path d="M139.5 101.458L151.5 113.958H171" stroke="black" stroke-width="3"/>
<path d="M141.084 62.4948L140.047 63.5788L137.879 61.5051L138.916 60.4211L141.084 62.4948ZM151 49.958L149.916 48.9211L150.359 48.458H151V49.958ZM170.5 48.458C171.328 48.458 172 49.1296 172 49.958C172 50.7864 171.328 51.458 170.5 51.458V48.458ZM138.916 60.4211L149.916 48.9211L152.084 50.9948L141.084 62.4948L138.916 60.4211ZM151 48.458H170.5V51.458H151V48.458Z" fill="black"/>
<path d="M52 100.958L40.5 113.458H21" stroke="black" stroke-width="3"/>
<path d="M52.5 62.958L40.5 50.958H21" stroke="black" stroke-width="3"/>
<path d="M48.5 81.958H12.5" stroke="black" stroke-width="3"/>
<path d="M144 81.958H180" stroke="black" stroke-width="3"/>
</svg>
