<svg width="190" height="166" viewBox="0 0 190 166" fill="none" xmlns="http://www.w3.org/2000/svg">
<path d="M0 165.66V129.66C19.2 138.06 35 133.16 40.5 129.66C86.5 112.86 129.333 122.66 145 129.66C161.4 138.46 181.5 133.326 189.5 129.66V165.66H0Z" fill="#0F5C05"/>
<path d="M110.5 153.66C105.667 152.326 98.9001 146.86 110.5 135.66C115.5 139.16 122.9 150.86 110.5 153.66Z" fill="#EBF6EA"/>
<path d="M110.411 148.66C108.214 148.067 105.139 145.637 110.411 140.66C112.683 142.215 116.046 147.415 110.411 148.66Z" fill="black"/>
<path d="M70.5 147.66H77" stroke="#EBF6EA" stroke-width="2" stroke-linecap="round"/>
<path d="M80.5 147.66H87" stroke="#EBF6EA" stroke-width="2" stroke-linecap="round"/>
<path d="M90.5 147.66H97" stroke="#EBF6EA" stroke-width="2" stroke-linecap="round"/>
<path d="M73 11.1596C80.8333 3.49292 100.5 -7.24041 116.5 11.1596" stroke="black" stroke-width="2" stroke-linecap="round"/>
<path d="M77.5 14.6597C83.6226 8.62268 98.9943 0.170896 111.5 14.6597" stroke="black" stroke-width="2" stroke-linecap="round"/>
<path d="M82.5 19.6597C86.8218 15.1319 97.6724 8.79309 106.5 19.6597" stroke="black" stroke-width="2" stroke-linecap="round"/>
<path d="M85.5 23.6597C88.7414 20.6412 96.8793 16.4153 103.5 23.6597" stroke="black" stroke-width="2" stroke-linecap="round"/>
<path d="M89.5 28.6597C91.3008 27.1504 95.8218 25.0375 99.5 28.6597" stroke="black" stroke-width="2" stroke-linecap="round"/>
<path d="M94.5 80.6597C86.3334 75.6597 74.9 61.5597 94.5 45.1597C103 51.993 114.9 68.6597 94.5 80.6597ZM94.5 80.6597C84.9001 73.4597 76 73.6597 68.5 74.6597C68.5 91.0597 85.5 92.1597 94.5 94.6597M94.5 80.6597C99.6667 77.3263 108.5 71.6597 120 74.6597C117.5 82.1597 118 90.1597 94.5 94.6597M94.5 80.6597V65M94.5 80.6597V94.6597M94.5 114.16C75.3 114.16 68.5 100.16 68.5 93.1597C81.3 91.9597 90.6667 97.6597 94.5 100.66C105.3 92.2597 116.5 93.1597 120 94.6597C119.6 107.86 104.833 113.16 97.5 114.16H94.5ZM94.5 114.16V120.16V101.66V94.6597M94.5 114.16L104.5 103M94.5 114.16L82.5 103M94.5 94.6597L104.5 83M94.5 94.6597L82.5 83" stroke="#0F5C05" stroke-width="3" stroke-linecap="round" stroke-linejoin="round"/>
</svg>
