<svg width="320" height="79" viewBox="0 0 320 79" fill="none" xmlns="http://www.w3.org/2000/svg">
<path d="M1.00001 78.337V60.9914C10.251 65.0387 17.8638 62.6778 20.5139 60.9914C42.6778 52.8967 63.3159 57.6186 70.8645 60.9914C78.7664 65.2314 88.4511 62.7581 92.3057 60.9914V78.337H1.00001Z" fill="#0F5C05"/>
<path d="M30.1787 23.4375L29.6677 22.9264L30.1787 23.4375ZM42.7982 17.6996C43.1918 17.633 43.4569 17.2601 43.3904 16.8665C43.3239 16.4729 42.9509 16.2078 42.5573 16.2743L42.7982 17.6996ZM30.6898 55.6337C26.4881 51.432 24.1276 45.7332 24.1276 39.7911H22.6821C22.6821 46.1166 25.1949 52.183 29.6677 56.6558L30.6898 55.6337ZM24.1276 39.7911C24.1276 33.849 26.4881 28.1502 30.6898 23.9485L29.6677 22.9264C25.1949 27.3992 22.6821 33.4656 22.6821 39.7911H24.1276ZM30.6898 23.9485C34.0008 20.6375 38.2414 18.4698 42.7982 17.6996L42.5573 16.2743C37.7066 17.0942 33.1923 19.4018 29.6677 22.9264L30.6898 23.9485Z" fill="black"/>
<path d="M62.4042 56.1448C66.7415 51.8075 69.1781 45.9249 69.1781 39.7911C69.1781 33.6573 66.7415 27.7747 62.4042 23.4375C58.9864 20.0196 54.6089 17.782 49.9051 16.9869" stroke="black" stroke-width="1.44547" stroke-linecap="round" stroke-linejoin="round"/>
<path d="M55.5652 73.6828C52.5666 72.8619 48.3685 69.4963 55.5652 62.6008C58.6672 64.7557 63.2583 71.9589 55.5652 73.6828Z" fill="#EBF6EA"/>
<path d="M55.6225 71.2736C54.035 70.8454 51.8125 69.0894 55.6225 65.4918C57.2648 66.616 59.6954 70.3742 55.6225 71.2736Z" fill="black" stroke="black" stroke-width="1.44547"/>
<path d="M33.2822 69.6642H36.9459" stroke="#EBF6EA" stroke-width="1.44547" stroke-linecap="round"/>
<path d="M39.4005 69.6642H43.0642" stroke="#EBF6EA" stroke-width="1.44547" stroke-linecap="round"/>
<path d="M45.5187 69.6642H49.1824" stroke="#EBF6EA" stroke-width="1.44547" stroke-linecap="round"/>
<path d="M37.0648 5.35641C40.4746 1.9943 49.0353 -2.71266 56 5.35641" stroke="black" stroke-width="1.67076" stroke-linecap="round"/>
<path d="M39.8493 8.14095C42.2563 5.61937 48.2992 2.08915 53.2154 8.14095" stroke="black" stroke-width="1.67076" stroke-linecap="round"/>
<path d="M41.5201 10.3687C43.3253 8.68761 47.8575 6.33413 51.5447 10.3687" stroke="black" stroke-width="1.67076" stroke-linecap="round"/>
<path d="M43.7478 13.1532C44.7507 12.3127 47.2685 11.1359 49.317 13.1532" stroke="black" stroke-width="1.11384" stroke-linecap="round"/>
<circle cx="84.5965" cy="54.6508" r="2.89094" stroke="black" stroke-width="1.44547"/>
<circle cx="2.16821" cy="2.16821" r="2.89094" transform="matrix(-1 0 0 1 10.1547 52.7235)" stroke="black" stroke-width="1.44547"/>
<circle cx="2.16821" cy="2.16821" r="2.89094" transform="matrix(-1 0 0 1 5.81824 37.0641)" stroke="black" stroke-width="1.44547"/>
<circle cx="89.1738" cy="39.2324" r="2.89094" stroke="black" stroke-width="1.44547"/>
<path d="M7.50464 21.3335C5.89694 21.3335 4.6137 22.6549 4.6137 24.2601C4.6137 25.8653 5.89694 27.1867 7.50464 27.1867C9.11235 27.1867 10.3956 25.8653 10.3956 24.2601C10.3956 22.6549 9.11235 21.3335 7.50464 21.3335Z" stroke="black" stroke-width="1.44547" stroke-linecap="round"/>
<path d="M85.0783 20.8516C83.4706 20.8516 82.1874 22.1731 82.1874 23.7783C82.1874 25.3834 83.4706 26.7049 85.0783 26.7049C86.686 26.7049 87.9692 25.3834 87.9692 23.7783C87.9692 22.1731 86.686 20.8516 85.0783 20.8516Z" stroke="black" stroke-width="1.44547" stroke-linecap="round"/>
<path d="M46.5324 37.382C42.5975 34.9729 37.0886 28.1791 46.5324 20.2772C50.6279 23.5697 56.3616 31.6001 46.5324 37.382ZM46.5324 37.382C41.9069 33.9128 37.6186 34.0092 34.0049 34.491C34.0049 42.3929 42.196 42.9229 46.5324 44.1275M46.5324 37.382C49.0218 35.7759 53.2779 33.0456 58.8189 34.491C57.6143 38.1047 57.8552 41.9593 46.5324 44.1275M46.5324 37.382V29.8368M46.5324 37.382V44.1275M46.5324 53.5231C37.2814 53.5231 34.0049 46.7775 34.0049 43.4048C40.1723 42.8266 44.6854 45.573 46.5324 47.0185C51.7361 42.9711 57.1325 43.4048 58.8189 44.1275C58.6262 50.4876 51.5112 53.0413 47.9778 53.5231H46.5324ZM46.5324 53.5231V56.414V47.5003V44.1275M46.5324 53.5231L51.3506 48.1461M46.5324 53.5231L40.7505 48.1461M46.5324 44.1275L51.3506 38.5096M46.5324 44.1275L40.7505 38.5096" stroke="#0F5C05" stroke-width="1.44547" stroke-linecap="round" stroke-linejoin="round"/>
<path d="M67.2508 48.8688L73.0327 54.8916H82.4283" stroke="black" stroke-width="1.44547"/>
<path d="M68.014 30.0955L67.5144 30.6178L66.4699 29.6187L66.9694 29.0964L68.014 30.0955ZM72.7918 24.055L72.2695 23.5554L72.483 23.3322H72.7918V24.055ZM82.1873 23.3322C82.5865 23.3322 82.9101 23.6558 82.9101 24.055C82.9101 24.4541 82.5865 24.7777 82.1873 24.7777V23.3322ZM66.9694 29.0964L72.2695 23.5554L73.3141 24.5545L68.014 30.0955L66.9694 29.0964ZM72.7918 23.3322H82.1873V24.7777H72.7918V23.3322Z" fill="black"/>
<path d="M25.0912 48.6279L19.5502 54.6507H10.1547" stroke="black" stroke-width="1.44547"/>
<path d="M25.3321 30.3186L19.5502 24.5367H10.1547" stroke="black" stroke-width="1.44547"/>
<path d="M23.4048 39.4733H6.05915" stroke="black" stroke-width="1.44547"/>
<path d="M69.419 39.4733H86.7647" stroke="black" stroke-width="1.44547"/>
<path d="M111.296 52L122.924 25.096H127.826L139.53 52H132.842L130.524 46.3H120.074L117.832 52H111.296ZM128.51 41.284L125.204 32.924L121.936 41.284H128.51ZM160.894 33.532V50.442C160.894 57.396 157.36 61.12 150.216 61.12C146.948 61.12 143.604 60.55 140.944 58.422L144.098 53.71C145.846 55.192 147.784 56.104 150.102 56.104C153.56 56.104 155.194 54.204 155.194 51.582V49.796H155.118C153.826 51.582 151.622 52.228 149.912 52.228C144.44 52.228 140.83 48.276 140.83 42.69C140.83 37.788 144.022 33.076 149.266 33.076C152.496 33.076 154.7 34.634 155.574 35.964H155.65V33.532H160.894ZM146.53 42.652C146.53 45.046 148.506 47.212 151.09 47.212C153.674 47.212 155.65 45.046 155.65 42.652C155.65 40.258 153.674 38.092 151.09 38.092C148.506 38.092 146.53 40.258 146.53 42.652ZM165.45 52V33.532H171.15V36.496H171.226C172.442 34.254 174.038 33.076 176.546 33.076C177.192 33.076 177.914 33.114 178.446 33.266V38.472C177.648 38.244 176.85 38.092 176.014 38.092C171.682 38.092 171.15 40.6 171.15 44.286V52H165.45ZM181 52V33.532H186.7V52H181ZM180.544 27.718C180.544 25.894 182.026 24.412 183.85 24.412C185.674 24.412 187.156 25.894 187.156 27.718C187.156 29.542 185.674 31.024 183.85 31.024C182.026 31.024 180.544 29.542 180.544 27.718ZM213.671 28.364L209.111 32.088C207.933 30.682 206.223 29.884 204.019 29.884C199.535 29.884 196.229 33.532 196.229 38.548C196.229 43.564 199.535 47.212 203.829 47.212C206.223 47.212 208.161 46.148 209.377 44.324L214.317 48.01C212.075 51.202 208.275 52.684 204.589 52.684C196.191 52.684 190.073 47.174 190.073 38.548C190.073 29.922 196.191 24.412 204.589 24.412C207.591 24.412 211.391 25.438 213.671 28.364ZM230.299 45.882L234.289 48.808C232.465 51.126 229.463 52.456 226.499 52.456C220.799 52.456 216.239 48.656 216.239 42.766C216.239 36.876 220.799 33.076 226.499 33.076C231.819 33.076 235.163 36.876 235.163 42.766V44.552H221.939C222.395 46.718 224.029 48.124 226.233 48.124C228.095 48.124 229.349 47.174 230.299 45.882ZM221.939 40.676H229.463C229.501 38.776 228.019 37.18 225.967 37.18C223.459 37.18 222.091 38.89 221.939 40.676ZM238.629 52V33.532H244.101V36.04H244.177C244.937 34.596 246.799 33.076 249.573 33.076C255.349 33.076 256.413 36.876 256.413 41.816V52H250.713V42.956C250.713 40.828 250.675 38.092 247.749 38.092C244.785 38.092 244.329 40.41 244.329 42.804V52H238.629ZM273.028 33.532V38.092H268.012V44.248C268.012 46.224 268.24 47.668 270.71 47.668C271.318 47.668 272.534 47.592 273.028 47.136V51.886C271.774 52.342 270.368 52.456 269.038 52.456C265.238 52.456 262.312 50.898 262.312 46.87V38.092H258.664V33.532H262.312V28.06H268.012V33.532H273.028ZM275.924 52V33.532H281.624V36.496H281.7C282.916 34.254 284.512 33.076 287.02 33.076C287.666 33.076 288.388 33.114 288.92 33.266V38.472C288.122 38.244 287.324 38.092 286.488 38.092C282.156 38.092 281.624 40.6 281.624 44.286V52H275.924ZM302.989 52V49.682H302.913C301.659 51.658 299.379 52.456 297.061 52.456C293.603 52.456 290.487 50.48 290.487 46.756C290.487 40.372 298.239 40.258 302.989 40.258C302.989 38.244 301.317 36.952 299.341 36.952C297.479 36.952 295.921 37.788 294.705 39.156L291.665 36.04C293.755 34.064 296.795 33.076 299.797 33.076C306.447 33.076 308.233 36.458 308.233 42.614V52H302.989ZM302.989 43.906H301.583C299.835 43.906 295.959 44.058 295.959 46.566C295.959 47.934 297.403 48.58 298.657 48.58C300.899 48.58 302.989 47.402 302.989 45.122V43.906ZM311.885 52V23.272H317.585V52H311.885Z" fill="#0F5C05"/>
</svg>
