<svg width="92" height="79" viewBox="0 0 92 79" fill="none" xmlns="http://www.w3.org/2000/svg">
<path d="M0 78.436V61.0903C9.25102 65.1377 16.8638 62.7767 19.5139 61.0903C41.6778 52.9957 62.3159 57.7176 69.8645 61.0903C77.7664 65.3304 87.4511 62.857 91.3056 61.0903V78.436H0Z" fill="#0F5C05"/>
<path d="M54.5652 73.7817C51.5666 72.9608 47.3685 69.5952 54.5652 62.6998C57.6672 64.8546 62.2583 72.0579 54.5652 73.7817Z" fill="#EBF6EA"/>
<path d="M54.6225 71.3726C53.035 70.9443 50.8125 69.1883 54.6225 65.5907C56.2648 66.7149 58.6954 70.4732 54.6225 71.3726Z" fill="black" stroke="black" stroke-width="1.44547"/>
<path d="M32.2822 69.7631H35.9459" stroke="#EBF6EA" stroke-width="1.44547" stroke-linecap="round"/>
<path d="M38.4005 69.7631H42.0642" stroke="#EBF6EA" stroke-width="1.44547" stroke-linecap="round"/>
<path d="M44.5187 69.7631H48.1824" stroke="#EBF6EA" stroke-width="1.44547" stroke-linecap="round"/>
<path d="M36.0648 5.45535C39.4746 2.09324 48.0353 -2.61372 55 5.45535" stroke="black" stroke-width="1.67076" stroke-linecap="round"/>
<path d="M38.8493 8.23992C41.2562 5.71834 47.2991 2.18812 52.2154 8.23992" stroke="black" stroke-width="1.67076" stroke-linecap="round"/>
<path d="M40.5201 10.4676C42.3253 8.78652 46.8575 6.43304 50.5447 10.4676" stroke="black" stroke-width="1.67076" stroke-linecap="round"/>
<path d="M42.7478 13.2521C43.7507 12.4116 46.2685 11.2349 48.317 13.2521" stroke="black" stroke-width="1.11384" stroke-linecap="round"/>
<path d="M45.5324 37.4809C41.5975 35.0718 36.0886 28.2781 45.5324 20.3761C49.6279 23.6686 55.3616 31.699 45.5324 37.4809ZM45.5324 37.4809C40.9069 34.0118 36.6186 34.1081 33.0049 34.59C33.0049 42.4919 41.196 43.0219 45.5324 44.2264M45.5324 37.4809C48.0218 35.8748 52.2779 33.1445 57.8189 34.59C56.6143 38.2036 56.8552 42.0582 45.5324 44.2264M45.5324 37.4809V29.9357M45.5324 37.4809V44.2264M45.5324 53.622C36.2814 53.622 33.0049 46.8765 33.0049 43.5037C39.1723 42.9255 43.6854 45.6719 45.5324 47.1174C50.7361 43.0701 56.1325 43.5037 57.8189 44.2264C57.6262 50.5865 50.5112 53.1402 46.9778 53.622H45.5324ZM45.5324 53.622V56.5129V47.5992V44.2264M45.5324 53.622L50.3506 48.245M45.5324 53.622L39.7505 48.245M45.5324 44.2264L50.3506 38.6085M45.5324 44.2264L39.7505 38.6085" stroke="#0F5C05" stroke-width="1.44547" stroke-linecap="round" stroke-linejoin="round"/>
</svg>
